<?xml version="1.0" standalone="no"?>
<!DOCTYPE svg PUBLIC "-//W3C//DTD SVG 20010904//EN"
 "http://www.w3.org/TR/2001/REC-SVG-20010904/DTD/svg10.dtd">
<svg version="1.0" xmlns="http://www.w3.org/2000/svg"
 width="100.000000pt" height="100.000000pt" viewBox="0 0 225.000000 225.000000"
 preserveAspectRatio="xMidYMid meet">

<g transform="translate(0.000000,225.000000) scale(0.100000,-0.100000)"
fill="#000000" stroke="none">
<path d="M1234 1713 c6 -37 7 -37 -28 -23 -21 8 -26 6 -32 -12 -9 -29 19 -48
72 -48 24 0 46 -4 49 -10 3 -5 -1 -10 -9 -10 -8 0 -17 -4 -20 -9 -4 -5 4 -7
16 -3 20 5 21 3 11 -10 -7 -8 -10 -18 -6 -22 4 -4 7 -21 8 -38 0 -25 4 -32 22
-33 12 -1 22 1 21 4 -2 20 4 31 13 25 8 -5 8 -1 0 14 -15 27 -14 32 5 32 10 0
12 5 7 12 -4 7 -6 25 -4 40 2 27 -23 76 -36 70 -4 -2 -10 5 -14 15 -7 16 -8
15 -8 -4 -1 -36 -21 -27 -22 10 l-2 32 -7 -35 -7 -35 -17 35 -17 35 5 -32z"/>
<path d="M1203 1588 c-11 -13 -46 -62 -78 -111 -31 -48 -67 -94 -79 -103 -21
-16 -20 -16 9 -9 17 3 48 18 70 32 l40 26 -25 -28 c-32 -35 -78 -55 -128 -55
-33 0 -44 6 -66 34 -14 19 -26 46 -26 59 0 13 -10 39 -22 57 -60 87 -132 98
-235 35 -35 -21 -63 -42 -63 -48 0 -5 7 -7 15 -3 19 7 19 7 -5 -46 -23 -53
-37 -152 -22 -161 5 -4 12 13 16 42 12 88 78 190 94 143 2 -7 -2 -10 -11 -7
-7 3 -19 -1 -26 -9 -16 -20 -21 -96 -8 -121 6 -11 11 -36 12 -57 1 -39 19 -68
41 -68 8 0 16 -11 20 -25 6 -24 24 -35 24 -15 0 6 9 10 20 10 15 0 20 -7 20
-24 0 -14 5 -28 10 -31 6 -3 10 3 10 15 0 19 4 20 38 14 20 -3 44 -15 54 -25
11 -14 18 -15 21 -7 3 8 9 3 15 -12 6 -14 11 -19 11 -11 1 12 3 12 14 -1 6 -9
30 -18 51 -21 50 -8 57 -16 63 -70 5 -39 3 -45 -16 -50 -11 -3 -21 -2 -21 1 0
4 -5 14 -10 22 -8 12 -13 11 -33 -8 -24 -23 -73 -29 -274 -36 -24 0 -43 -5
-43 -9 0 -5 -9 -5 -20 -2 -13 4 -30 -1 -46 -14 l-27 -21 532 0 c398 0 531 3
531 12 0 6 -3 8 -7 5 -3 -4 -17 0 -30 8 -13 9 -28 13 -33 10 -6 -3 -15 -3 -21
1 -6 3 -45 8 -87 11 -99 5 -100 5 -94 42 3 25 10 32 38 37 19 3 34 11 34 17 0
6 3 8 6 4 4 -3 13 0 20 8 8 7 25 12 39 9 15 -2 25 0 25 7 0 6 6 9 13 7 17 -6
52 34 51 57 0 11 3 25 7 30 10 15 5 51 -10 69 -9 10 -9 16 -3 16 14 0 29 -28
42 -77 l9 -38 -4 45 c-9 86 -12 91 -59 114 -54 25 -91 7 -121 -60 -21 -48 -27
-54 -53 -54 -17 0 -38 8 -49 18 -10 9 -14 14 -8 11 41 -23 40 -12 -3 48 -56
78 -70 86 -78 44 -4 -17 -13 -36 -20 -42 -9 -7 -14 -32 -14 -70 0 -51 4 -63
32 -94 23 -27 33 -33 39 -23 6 9 9 3 9 -17 0 -16 3 -39 6 -50 3 -11 -2 -29 -9
-40 -12 -15 -18 -17 -29 -7 -8 6 -18 9 -21 5 -4 -3 -15 2 -26 11 -12 11 -21
14 -26 7 -11 -19 -25 -12 -38 21 -11 27 -11 37 0 58 16 30 17 79 3 116 -6 15
-8 29 -5 32 3 3 11 -9 17 -26 7 -18 17 -31 23 -29 13 5 19 95 7 110 -5 7 -10
31 -11 55 -1 33 3 47 23 67 25 25 66 34 66 15 0 -5 7 -10 15 -10 23 0 10 100
-16 119 -12 9 -19 26 -19 47 0 19 -4 34 -10 34 -5 0 -12 11 -16 25 -8 31 -24
32 -51 3z m-61 -598 c9 -22 12 -40 7 -40 -5 0 -8 -5 -6 -12 4 -23 -30 -19 -37
4 -12 46 -6 88 13 88 3 0 14 -18 23 -40z m222 -43 c-7 -18 -24 -23 -24 -8 0
22 13 42 22 33 5 -5 6 -16 2 -25z"/>
<path d="M1255 1340 c-24 -4 -30 -10 -31 -33 -1 -15 2 -27 6 -27 4 0 7 -7 6
-16 0 -9 5 -19 13 -22 10 -3 12 4 9 32 -4 33 -2 36 22 36 30 0 58 16 47 26 -9
10 -34 11 -72 4z"/>
<path d="M468 809 c-14 -8 -18 -24 -18 -80 0 -65 2 -70 26 -79 38 -15 62 -12
84 10 20 20 18 50 -4 50 -6 0 -17 -9 -24 -20 -21 -34 -42 -14 -42 41 0 55 22
77 46 45 7 -10 19 -16 28 -14 13 2 14 7 3 28 -14 28 -68 38 -99 19z"/>
<path d="M670 729 c0 -81 2 -90 18 -87 12 2 18 14 20 41 3 33 6 38 25 35 18
-2 23 -11 25 -41 3 -30 7 -37 20 -35 14 3 17 18 20 91 3 82 2 87 -18 87 -16 0
-20 -6 -20 -35 0 -31 -3 -35 -25 -35 -22 0 -25 4 -25 35 0 28 -4 35 -20 35
-19 0 -20 -7 -20 -91z"/>
<path d="M900 729 c0 -81 2 -90 18 -87 14 3 17 17 20 91 3 82 2 87 -18 87 -19
0 -20 -6 -20 -91z"/>
<path d="M1046 804 c-11 -10 -16 -34 -16 -74 0 -49 4 -61 22 -74 12 -9 32 -16
43 -16 11 0 31 7 43 16 28 19 30 54 2 54 -12 0 -20 -7 -20 -16 0 -10 -7 -14
-22 -12 -20 3 -23 10 -26 51 -2 37 1 49 14 54 10 4 22 0 29 -10 15 -21 45 -22
45 -3 0 25 -30 46 -65 46 -18 0 -41 -7 -49 -16z"/>
<path d="M1250 730 c0 -82 2 -90 19 -90 16 0 20 8 23 38 l3 37 23 -37 c14 -23
31 -38 43 -38 25 0 24 10 -6 54 l-25 37 26 45 c26 43 26 44 5 44 -14 0 -29
-13 -44 -37 l-22 -38 -3 38 c-3 29 -7 37 -23 37 -17 0 -19 -8 -19 -90z"/>
<path d="M1472 733 l3 -88 50 0 c38 0 50 4 50 15 0 10 -12 16 -32 18 -25 2
-33 8 -33 23 0 14 7 19 30 19 20 0 30 5 30 15 0 10 -10 15 -30 15 -23 0 -30 4
-30 20 0 16 7 20 30 20 20 0 30 5 30 15 0 11 -12 15 -50 15 l-51 0 3 -87z"/>
<path d="M1670 729 c0 -81 2 -90 18 -87 12 2 19 16 22 43 l5 40 25 -43 c38
-68 54 -54 58 51 3 82 2 87 -18 87 -17 0 -20 -6 -20 -47 l-1 -48 -27 47 c-16
29 -34 48 -44 48 -16 0 -18 -11 -18 -91z"/>
<path d="M1189 578 c0 -13 -1 -49 -2 -81 -1 -40 2 -57 11 -57 8 0 12 23 12 80
0 47 -4 80 -10 80 -5 0 -10 -10 -11 -22z"/>
<path d="M1256 591 c-4 -7 -5 -15 -2 -18 9 -9 19 4 14 18 -4 11 -6 11 -12 0z"/>
<path d="M879 523 c-13 -37 -25 -71 -27 -75 -2 -4 3 -8 11 -8 10 0 13 7 10 20
-3 12 0 20 7 20 7 0 10 6 7 13 -3 7 1 26 8 42 l12 30 19 -62 c13 -44 24 -63
36 -63 15 0 15 3 -2 38 -9 20 -23 54 -31 75 -7 20 -16 37 -19 37 -4 0 -17 -30
-31 -67z"/>
<path d="M1007 543 c-4 -3 -7 -11 -7 -17 0 -6 5 -5 12 2 6 6 9 14 7 17 -3 3
-9 2 -12 -2z"/>
<path d="M1037 501 c-42 -57 -43 -61 -22 -61 8 0 15 5 15 12 0 6 12 26 26 45
14 18 24 38 22 44 -2 5 -20 -13 -41 -40z"/>
<path d="M1128 539 c-11 -6 -18 -22 -18 -42 0 -40 8 -52 40 -62 l25 -7 -22 17
c-16 11 -23 26 -23 51 0 27 5 37 23 44 12 5 15 9 7 9 -8 0 -23 -4 -32 -10z"/>
<path d="M1250 495 c0 -37 4 -55 13 -55 8 0 11 16 9 55 -5 71 -22 71 -22 0z"/>
<path d="M1317 543 c-13 -12 -8 -103 6 -103 8 0 12 16 11 50 -2 52 -6 65 -17
53z"/>
<path d="M1375 533 c12 -11 16 -28 13 -55 -2 -26 0 -38 9 -38 15 0 17 48 3 84
-5 14 -17 26 -25 26 -15 0 -15 -2 0 -17z"/>
<path d="M1076 461 c-4 -7 -5 -15 -2 -18 9 -9 19 4 14 18 -4 11 -6 11 -12 0z"/>
</g>
</svg>
